<svg width="14" height="16" viewBox="0 0 14 16" fill="none" xmlns="http://www.w3.org/2000/svg">
<path d="M9.40409 13C8.91686 13 8.50131 12.8278 8.15742 12.4833C7.81353 12.1389 7.64131 11.7236 7.64075 11.2375C7.6402 10.7514 7.81242 10.3355 8.15742 9.98999C8.50242 9.64443 8.91797 9.47249 9.40409 9.47415C9.8902 9.47582 10.3058 9.64804 10.6508 9.99082C10.9958 10.3336 11.1677 10.7492 11.1666 11.2375C11.1655 11.7258 10.9933 12.1414 10.6499 12.4842C10.3066 12.8269 9.89131 12.9989 9.40409 13ZM1.67909 15.5C1.29575 15.5 0.975752 15.3717 0.719085 15.115C0.462418 14.8583 0.333808 14.538 0.333252 14.1542V3.51249C0.333252 3.12915 0.461863 2.80915 0.719085 2.55249C0.976307 2.29582 1.29659 2.16721 1.67992 2.16665H3.15409V0.308319H4.05159V2.16665H10.0133V0.308319H10.8466V2.16665H12.3208C12.7041 2.16665 13.0244 2.29526 13.2816 2.55249C13.5388 2.80971 13.6671 3.12999 13.6666 3.51332V14.1542C13.6666 14.5375 13.5383 14.8578 13.2816 15.115C13.0249 15.3722 12.7044 15.5005 12.3199 15.5H1.67909ZM1.67909 14.6667H12.3208C12.4485 14.6667 12.566 14.6133 12.6733 14.5067C12.7805 14.4 12.8338 14.2822 12.8333 14.1533V6.84665H1.16659V14.1542C1.16659 14.2819 1.21992 14.3994 1.32659 14.5067C1.43325 14.6139 1.55075 14.6672 1.67909 14.6667ZM1.16659 6.01249H12.8333V3.51249C12.8333 3.38471 12.7799 3.26721 12.6733 3.15999C12.5666 3.05276 12.4488 2.99943 12.3199 2.99999H1.67992C1.55159 2.99999 1.43381 3.05332 1.32659 3.15999C1.21936 3.26665 1.16603 3.38443 1.16659 3.51332V6.01249Z" fill="#494949"/>
</svg>
