<svg width="147" height="42" viewBox="0 0 147 42" fill="none" xmlns="http://www.w3.org/2000/svg">
<rect width="146.845" height="41.2759" rx="3.42529" fill="#242424"/>
<path d="M61.9518 11.5151V13.2979C61.8916 13.3871 61.7957 13.4875 61.6641 13.599C61.5325 13.7083 61.3508 13.8042 61.1189 13.8867C60.8892 13.9669 60.5926 14.0071 60.2291 14.0071C59.9325 14.0071 59.6593 13.9558 59.4096 13.8532C59.162 13.7484 58.9468 13.5968 58.764 13.3983C58.5833 13.1976 58.4429 12.9545 58.3425 12.6691C58.2444 12.3814 58.1953 12.0558 58.1953 11.6923V11.3144C58.1953 10.9509 58.2377 10.6264 58.3224 10.341C58.4094 10.0555 58.5365 9.81356 58.7038 9.61509C58.871 9.41439 59.0762 9.26275 59.3192 9.16017C59.5623 9.05536 59.8411 9.00296 60.1555 9.00296C60.5279 9.00296 60.839 9.06763 61.0888 9.19697C61.3407 9.32408 61.537 9.50025 61.6775 9.72548C61.8202 9.95071 61.9116 10.2072 61.9518 10.4948H61.3062C61.2772 10.3187 61.2192 10.1581 61.1322 10.0131C61.0475 9.8682 60.926 9.75224 60.7676 9.66527C60.6093 9.57607 60.4053 9.53147 60.1555 9.53147C59.9303 9.53147 59.7351 9.57272 59.5701 9.65523C59.4051 9.73774 59.2691 9.85593 59.162 10.0098C59.055 10.1637 58.9747 10.3499 58.9212 10.5684C58.8699 10.787 58.8443 11.0334 58.8443 11.3077V11.6923C58.8443 11.9733 58.8766 12.2242 58.9413 12.445C59.0082 12.6657 59.1029 12.8542 59.2256 13.0103C59.3482 13.1641 59.4943 13.2812 59.6638 13.3615C59.8355 13.4418 60.025 13.4819 60.2324 13.4819C60.4621 13.4819 60.6483 13.463 60.791 13.4251C60.9338 13.3849 61.0453 13.3381 61.1255 13.2846C61.2058 13.2288 61.2672 13.1764 61.3095 13.1273V12.0369H60.1823V11.5151H61.9518ZM66.1163 13.415V13.9402H63.5373V13.415H66.1163ZM63.6678 9.06986V13.9402H63.0222V9.06986H63.6678ZM65.7751 11.1638V11.689H63.5373V11.1638H65.7751ZM66.0828 9.06986V9.59837H63.5373V9.06986H66.0828ZM68.7823 9.06986V13.9402H68.1467V9.06986H68.7823ZM70.3477 9.06986V9.59837H66.5846V9.06986H70.3477ZM73.3281 9.06986V13.9402H72.6825V9.06986H73.3281ZM76.2015 9.06986V13.9402H75.5659V9.06986H76.2015ZM77.767 9.06986V9.59837H74.0038V9.06986H77.767ZM83.8047 11.3512V11.6589C83.8047 12.0246 83.759 12.3524 83.6676 12.6423C83.5761 12.9322 83.4446 13.1786 83.2728 13.3816C83.1011 13.5845 82.8949 13.7395 82.654 13.8465C82.4154 13.9536 82.1478 14.0071 81.8512 14.0071C81.5635 14.0071 81.2993 13.9536 81.0584 13.8465C80.8198 13.7395 80.6124 13.5845 80.4363 13.3816C80.2623 13.1786 80.1274 12.9322 80.0315 12.6423C79.9356 12.3524 79.8877 12.0246 79.8877 11.6589V11.3512C79.8877 10.9854 79.9345 10.6587 80.0282 10.3711C80.1241 10.0812 80.259 9.83475 80.4329 9.63182C80.6069 9.42666 80.8131 9.27056 81.0518 9.16352C81.2926 9.05648 81.5569 9.00296 81.8445 9.00296C82.1411 9.00296 82.4087 9.05648 82.6473 9.16352C82.8882 9.27056 83.0944 9.42666 83.2662 9.63182C83.4401 9.83475 83.5728 10.0812 83.6642 10.3711C83.7579 10.6587 83.8047 10.9854 83.8047 11.3512ZM83.1658 11.6589V11.3445C83.1658 11.0546 83.1357 10.7981 83.0755 10.5751C83.0175 10.3521 82.9316 10.1648 82.8179 10.0131C82.7042 9.86151 82.5648 9.74666 82.3998 9.66861C82.237 9.59056 82.0519 9.55154 81.8445 9.55154C81.6438 9.55154 81.4621 9.59056 81.2993 9.66861C81.1387 9.74666 81.0005 9.86151 80.8845 10.0131C80.7708 10.1648 80.6827 10.3521 80.6202 10.5751C80.5578 10.7981 80.5266 11.0546 80.5266 11.3445V11.6589C80.5266 11.951 80.5578 12.2097 80.6202 12.4349C80.6827 12.6579 80.7719 12.8464 80.8879 13.0002C81.006 13.1519 81.1454 13.2667 81.306 13.3448C81.4688 13.4228 81.6505 13.4618 81.8512 13.4618C82.0608 13.4618 82.247 13.4228 82.4098 13.3448C82.5726 13.2667 82.7098 13.1519 82.8213 13.0002C82.935 12.8464 83.0208 12.6579 83.0788 12.4349C83.1368 12.2097 83.1658 11.951 83.1658 11.6589ZM88.5178 9.06986V13.9402H87.8689L85.417 10.1837V13.9402H84.7714V9.06986H85.417L87.8789 12.8363V9.06986H88.5178Z" fill="white"/>
<path d="M66.3772 24.5561V28.4163C66.2256 28.5991 65.9914 28.7976 65.6748 29.0117C65.3581 29.2213 64.95 29.4019 64.4505 29.5536C63.951 29.7052 63.3466 29.781 62.6375 29.781C62.0086 29.781 61.4355 29.6784 60.9182 29.4733C60.4008 29.2637 59.9548 28.9581 59.5802 28.5567C59.21 28.1553 58.9245 27.6647 58.7238 27.0849C58.5231 26.5007 58.4228 25.8339 58.4228 25.0846V24.4758C58.4228 23.7266 58.5187 23.0598 58.7105 22.4755C58.9067 21.8913 59.1854 21.3984 59.5467 20.997C59.908 20.5956 60.3384 20.2901 60.8379 20.0805C61.3374 19.8709 61.8927 19.7661 62.5037 19.7661C63.3511 19.7661 64.0469 19.9043 64.591 20.1808C65.1351 20.4529 65.5499 20.832 65.8353 21.3181C66.1252 21.7998 66.3036 22.3529 66.3705 22.9773H64.4237C64.3747 22.6472 64.281 22.3596 64.1427 22.1143C64.0045 21.869 63.806 21.6772 63.5473 21.5389C63.2931 21.4007 62.9631 21.3315 62.5572 21.3315C62.2227 21.3315 61.9239 21.4007 61.6607 21.5389C61.4021 21.6727 61.1835 21.8712 61.0051 22.1343C60.8267 22.3975 60.6907 22.7231 60.597 23.1111C60.5034 23.4991 60.4565 23.9496 60.4565 24.4625V25.0846C60.4565 25.5931 60.5056 26.0435 60.6037 26.436C60.7018 26.824 60.8468 27.1518 61.0386 27.4194C61.2348 27.6826 61.4757 27.8811 61.7611 28.0149C62.0465 28.1487 62.3788 28.2156 62.7579 28.2156C63.0746 28.2156 63.3377 28.1888 63.5473 28.1353C63.7614 28.0818 63.9331 28.0171 64.0625 27.9413C64.1963 27.861 64.2988 27.7852 64.3702 27.7138V25.9878H62.5371V24.5561H66.3772ZM67.568 26.1015V25.961C67.568 25.4303 67.6439 24.9419 67.7955 24.4959C67.9471 24.0454 68.1679 23.6552 68.4578 23.3252C68.7477 22.9951 69.1045 22.7387 69.5282 22.5558C69.9519 22.3685 70.438 22.2748 70.9866 22.2748C71.5352 22.2748 72.0236 22.3685 72.4517 22.5558C72.8799 22.7387 73.2389 22.9951 73.5288 23.3252C73.8232 23.6552 74.0462 24.0454 74.1978 24.4959C74.3495 24.9419 74.4253 25.4303 74.4253 25.961V26.1015C74.4253 26.6278 74.3495 27.1162 74.1978 27.5666C74.0462 28.0126 73.8232 28.4029 73.5288 28.7374C73.2389 29.0674 72.8821 29.3239 72.4584 29.5067C72.0347 29.6896 71.5486 29.781 71 29.781C70.4514 29.781 69.9631 29.6896 69.5349 29.5067C69.1112 29.3239 68.7522 29.0674 68.4578 28.7374C68.1679 28.4029 67.9471 28.0126 67.7955 27.5666C67.6439 27.1162 67.568 26.6278 67.568 26.1015ZM69.4948 25.961V26.1015C69.4948 26.4048 69.5215 26.688 69.575 26.9511C69.6286 27.2143 69.7133 27.4462 69.8293 27.6469C69.9497 27.8431 70.1058 27.997 70.2976 28.1085C70.4893 28.22 70.7235 28.2758 71 28.2758C71.2676 28.2758 71.4973 28.22 71.6891 28.1085C71.8809 27.997 72.0347 27.8431 72.1507 27.6469C72.2667 27.4462 72.3514 27.2143 72.4049 26.9511C72.4629 26.688 72.4919 26.4048 72.4919 26.1015V25.961C72.4919 25.6667 72.4629 25.3901 72.4049 25.1315C72.3514 24.8683 72.2644 24.6364 72.144 24.4357C72.028 24.2305 71.8742 24.07 71.6824 23.954C71.4906 23.8381 71.2587 23.7801 70.9866 23.7801C70.7146 23.7801 70.4826 23.8381 70.2909 23.954C70.1035 24.07 69.9497 24.2305 69.8293 24.4357C69.7133 24.6364 69.6286 24.8683 69.575 25.1315C69.5215 25.3901 69.4948 25.6667 69.4948 25.961ZM75.3017 26.1015V25.961C75.3017 25.4303 75.3775 24.9419 75.5291 24.4959C75.6808 24.0454 75.9016 23.6552 76.1915 23.3252C76.4814 22.9951 76.8382 22.7387 77.2619 22.5558C77.6856 22.3685 78.1717 22.2748 78.7203 22.2748C79.2689 22.2748 79.7572 22.3685 80.1854 22.5558C80.6136 22.7387 80.9726 22.9951 81.2625 23.3252C81.5569 23.6552 81.7799 24.0454 81.9315 24.4959C82.0831 24.9419 82.159 25.4303 82.159 25.961V26.1015C82.159 26.6278 82.0831 27.1162 81.9315 27.5666C81.7799 28.0126 81.5569 28.4029 81.2625 28.7374C80.9726 29.0674 80.6158 29.3239 80.1921 29.5067C79.7684 29.6896 79.2822 29.781 78.7337 29.781C78.1851 29.781 77.6967 29.6896 77.2686 29.5067C76.8449 29.3239 76.4858 29.0674 76.1915 28.7374C75.9016 28.4029 75.6808 28.0126 75.5291 27.5666C75.3775 27.1162 75.3017 26.6278 75.3017 26.1015ZM77.2284 25.961V26.1015C77.2284 26.4048 77.2552 26.688 77.3087 26.9511C77.3622 27.2143 77.447 27.4462 77.5629 27.6469C77.6833 27.8431 77.8394 27.997 78.0312 28.1085C78.223 28.22 78.4571 28.2758 78.7337 28.2758C79.0013 28.2758 79.231 28.22 79.4227 28.1085C79.6145 27.997 79.7684 27.8431 79.8843 27.6469C80.0003 27.4462 80.085 27.2143 80.1386 26.9511C80.1965 26.688 80.2255 26.4048 80.2255 26.1015V25.961C80.2255 25.6667 80.1965 25.3901 80.1386 25.1315C80.085 24.8683 79.9981 24.6364 79.8777 24.4357C79.7617 24.2305 79.6078 24.07 79.416 23.954C79.2243 23.8381 78.9923 23.7801 78.7203 23.7801C78.4482 23.7801 78.2163 23.8381 78.0245 23.954C77.8372 24.07 77.6833 24.2305 77.5629 24.4357C77.447 24.6364 77.3622 24.8683 77.3087 25.1315C77.2552 25.3901 77.2284 25.6667 77.2284 25.961ZM87.9257 22.4086H89.6718V29.4064C89.6718 30.0665 89.5247 30.6262 89.2303 31.0856C88.9404 31.5494 88.5345 31.8995 88.0127 32.1359C87.4909 32.3767 86.8843 32.4972 86.193 32.4972C85.8898 32.4972 85.5686 32.457 85.2297 32.3767C84.8952 32.2965 84.574 32.1716 84.2663 32.0021C83.963 31.8326 83.7088 31.6185 83.5036 31.3599L84.3533 30.2226C84.5763 30.4812 84.835 30.6819 85.1293 30.8247C85.4237 30.9718 85.7493 31.0454 86.1061 31.0454C86.4539 31.0454 86.7483 30.9808 86.9891 30.8514C87.23 30.7265 87.4151 30.5414 87.5444 30.2961C87.6738 30.0553 87.7384 29.7632 87.7384 29.4198V24.0811L87.9257 22.4086ZM83.0554 26.1149V25.9744C83.0554 25.4214 83.1223 24.9196 83.2561 24.4691C83.3944 24.0142 83.5884 23.624 83.8381 23.2984C84.0924 22.9728 84.4001 22.7208 84.7614 22.5424C85.1226 22.364 85.5307 22.2748 85.9856 22.2748C86.4673 22.2748 86.871 22.364 87.1965 22.5424C87.5221 22.7208 87.7897 22.975 87.9993 23.3051C88.209 23.6307 88.3717 24.0165 88.4877 24.4625C88.6081 24.904 88.7018 25.3879 88.7687 25.9142V26.2219C88.7018 26.7259 88.6014 27.1942 88.4676 27.6268C88.3338 28.0595 88.1577 28.4386 87.9391 28.7641C87.7206 29.0853 87.4485 29.335 87.1229 29.5134C86.8018 29.6918 86.4183 29.781 85.9723 29.781C85.5263 29.781 85.1226 29.6896 84.7614 29.5067C84.4046 29.3239 84.0991 29.0674 83.8448 28.7374C83.5906 28.4073 83.3944 28.0193 83.2561 27.5733C83.1223 27.1273 83.0554 26.6412 83.0554 26.1149ZM84.9821 25.9744V26.1149C84.9821 26.4137 85.0111 26.6925 85.0691 26.9511C85.1271 27.2098 85.2163 27.4395 85.3367 27.6402C85.4616 27.8365 85.6155 27.9903 85.7983 28.1018C85.9856 28.2089 86.2064 28.2624 86.4606 28.2624C86.813 28.2624 87.1006 28.1888 87.3236 28.0416C87.5466 27.89 87.7139 27.6826 87.8254 27.4194C87.9369 27.1563 88.0016 26.853 88.0194 26.5096V25.6332C88.0105 25.3522 87.9726 25.1002 87.9057 24.8772C87.8388 24.6498 87.7451 24.4558 87.6247 24.2952C87.5043 24.1346 87.3482 24.0098 87.1564 23.9206C86.9646 23.8314 86.7372 23.7868 86.474 23.7868C86.2198 23.7868 85.999 23.8447 85.8117 23.9607C85.6288 24.0722 85.475 24.2261 85.3501 24.4223C85.2297 24.6186 85.1382 24.8505 85.0758 25.1181C85.0134 25.3812 84.9821 25.6667 84.9821 25.9744ZM93.2042 19.3714V29.6472H91.2708V19.3714H93.2042ZM98.128 29.781C97.5661 29.781 97.0621 29.6918 96.6161 29.5134C96.1701 29.3306 95.791 29.0786 95.4788 28.7574C95.171 28.4363 94.9346 28.0639 94.7696 27.6402C94.6046 27.2121 94.5221 26.7571 94.5221 26.2754V26.0078C94.5221 25.4593 94.6001 24.9575 94.7562 24.5026C94.9123 24.0477 95.1353 23.653 95.4253 23.3185C95.7196 22.984 96.0764 22.7275 96.4957 22.5491C96.9149 22.3663 97.3877 22.2748 97.9139 22.2748C98.4268 22.2748 98.8818 22.3596 99.2787 22.529C99.6756 22.6985 100.008 22.9394 100.276 23.2516C100.548 23.5638 100.753 23.9384 100.891 24.3755C101.029 24.8081 101.098 25.2898 101.098 25.8205V26.6233H95.345V25.3388H99.2051V25.1917C99.2051 24.9241 99.156 24.6855 99.0579 24.4758C98.9643 24.2618 98.8215 24.0923 98.6298 23.9674C98.438 23.8425 98.1927 23.7801 97.8939 23.7801C97.6396 23.7801 97.4211 23.8358 97.2382 23.9473C97.0554 24.0588 96.906 24.2149 96.79 24.4156C96.6785 24.6163 96.5938 24.8527 96.5358 25.1248C96.4823 25.3924 96.4555 25.6867 96.4555 26.0078V26.2754C96.4555 26.5654 96.4957 26.833 96.5759 27.0783C96.6607 27.3236 96.7789 27.5354 96.9305 27.7138C97.0866 27.8922 97.2739 28.0305 97.4925 28.1286C97.7155 28.2267 97.9675 28.2758 98.2484 28.2758C98.5963 28.2758 98.9197 28.2089 99.2185 28.0751C99.5218 27.9368 99.7827 27.7294 100.001 27.4529L100.938 28.4698C100.786 28.6883 100.579 28.8979 100.316 29.0986C100.057 29.2993 99.7448 29.4644 99.379 29.5937C99.0133 29.7186 98.5963 29.781 98.128 29.781ZM109.521 26.1751H107.039V24.6096H109.521C109.905 24.6096 110.217 24.5472 110.458 24.4223C110.699 24.293 110.875 24.1146 110.986 23.8871C111.098 23.6597 111.153 23.4032 111.153 23.1178C111.153 22.8279 111.098 22.558 110.986 22.3083C110.875 22.0585 110.699 21.8578 110.458 21.7062C110.217 21.5545 109.905 21.4787 109.521 21.4787H107.735V29.6472H105.728V19.9066H109.521C110.284 19.9066 110.937 20.0448 111.481 20.3213C112.03 20.5934 112.449 20.9703 112.739 21.4519C113.029 21.9336 113.174 22.4844 113.174 23.1044C113.174 23.7332 113.029 24.2774 112.739 24.7367C112.449 25.1961 112.03 25.5507 111.481 25.8005C110.937 26.0502 110.284 26.1751 109.521 26.1751ZM116.472 19.3714V29.6472H114.539V19.3714H116.472ZM121.971 28.0149V24.7903C121.971 24.5583 121.933 24.3599 121.857 24.1949C121.782 24.0254 121.663 23.8938 121.503 23.8001C121.347 23.7065 121.144 23.6597 120.894 23.6597C120.68 23.6597 120.495 23.6976 120.339 23.7734C120.183 23.8447 120.062 23.9496 119.978 24.0878C119.893 24.2216 119.85 24.3799 119.85 24.5628H117.924C117.924 24.2551 117.995 23.9629 118.138 23.6864C118.281 23.4099 118.488 23.1668 118.76 22.9572C119.032 22.7431 119.355 22.5759 119.73 22.4555C120.109 22.335 120.533 22.2748 121.001 22.2748C121.563 22.2748 122.063 22.3685 122.5 22.5558C122.937 22.7431 123.28 23.0241 123.53 23.3987C123.784 23.7734 123.911 24.2417 123.911 24.8036V27.9011C123.911 28.2981 123.936 28.6236 123.985 28.8779C124.034 29.1276 124.105 29.3462 124.199 29.5335V29.6472H122.252C122.159 29.451 122.087 29.2057 122.038 28.9113C121.994 28.6125 121.971 28.3137 121.971 28.0149ZM122.225 25.2385L122.239 26.329H121.162C120.908 26.329 120.687 26.358 120.499 26.4159C120.312 26.4739 120.158 26.5564 120.038 26.6635C119.917 26.7661 119.828 26.8865 119.77 27.0247C119.717 27.163 119.69 27.3146 119.69 27.4797C119.69 27.6447 119.728 27.7941 119.804 27.9279C119.879 28.0572 119.989 28.1598 120.131 28.2356C120.274 28.307 120.441 28.3427 120.633 28.3427C120.923 28.3427 121.175 28.2847 121.389 28.1687C121.603 28.0528 121.768 27.91 121.884 27.7406C122.005 27.5711 122.067 27.4105 122.072 27.2589L122.58 28.0751C122.509 28.2579 122.411 28.4475 122.286 28.6437C122.165 28.84 122.011 29.025 121.824 29.199C121.637 29.3685 121.411 29.509 121.148 29.6205C120.885 29.7275 120.573 29.781 120.212 29.781C119.752 29.781 119.335 29.6896 118.961 29.5067C118.591 29.3194 118.296 29.063 118.078 28.7374C117.864 28.4073 117.757 28.0327 117.757 27.6135C117.757 27.2344 117.828 26.8976 117.971 26.6033C118.113 26.3089 118.323 26.0614 118.599 25.8607C118.88 25.6555 119.231 25.5016 119.65 25.3991C120.069 25.292 120.555 25.2385 121.108 25.2385H122.225ZM127.437 28.831L129.357 22.4086H131.424L128.514 30.7377C128.452 30.9205 128.367 31.1168 128.26 31.3264C128.157 31.536 128.017 31.7345 127.838 31.9218C127.664 32.1136 127.444 32.2697 127.176 32.3901C126.913 32.5105 126.59 32.5708 126.206 32.5708C126.023 32.5708 125.874 32.5596 125.758 32.5373C125.642 32.515 125.504 32.4838 125.343 32.4436V31.032C125.392 31.032 125.443 31.032 125.497 31.032C125.55 31.0365 125.602 31.0387 125.651 31.0387C125.905 31.0387 126.112 31.0097 126.273 30.9518C126.433 30.8938 126.563 30.8046 126.661 30.6842C126.759 30.5682 126.837 30.4166 126.895 30.2292L127.437 28.831ZM126.634 22.4086L128.206 27.6536L128.481 29.694L127.169 29.8345L124.567 22.4086H126.634Z" fill="white"/>
<g clip-path="url(#clip0_1_17192)">
<path d="M27.789 19.917L12.9774 33.5159C13.1438 34.0325 13.4427 34.5089 13.8513 34.9087C14.2599 35.3085 14.7674 35.6211 15.3351 35.8227C15.9027 36.0243 16.5155 36.1095 17.1264 36.0717C17.7374 36.034 18.3304 35.8743 18.8602 35.605L35.526 27.2871L27.789 19.917Z" fill="#EA4335"/>
<path d="M42.7659 17.6055L35.559 13.988L27.4468 20.2264L35.592 27.2676L42.744 23.689C43.3776 23.3982 43.9083 22.9611 44.2786 22.4249C44.6489 21.8887 44.8446 21.2739 44.8446 20.6472C44.8446 20.0204 44.6489 19.4057 44.2786 18.8695C43.9083 18.3333 43.3776 17.8961 42.744 17.6054L42.7659 17.6055Z" fill="#FBBC04"/>
<path d="M12.9774 7.71045C12.8879 8.00049 12.8433 8.29978 12.8449 8.60025V32.6255C12.8458 32.9258 12.8903 33.2249 12.9774 33.5154L28.2968 20.2647L12.9774 7.71045Z" fill="#4285F4"/>
<path d="M27.8994 20.6132L35.5592 13.9878L18.9154 5.63121C18.2892 5.30982 17.577 5.13962 16.8513 5.13795C15.0504 5.13488 13.4672 6.18231 12.9774 7.70109L27.8994 20.6132Z" fill="#34A853"/>
</g>
<defs>
<clipPath id="clip0_1_17192">
<rect width="32" height="31" fill="white" transform="translate(12.8448 5.13794)"/>
</clipPath>
</defs>
</svg>
